<svg width="28" height="23" viewBox="0 0 28 23" fill="none" xmlns="http://www.w3.org/2000/svg">
<path d="M6.80349 0.32209C11.5921 -0.107363 16.4079 -0.107364 21.1965 0.32209L23.5036 0.528996C25.0395 0.666734 26.3549 1.61184 27.0365 2.96373C27.1237 3.13668 27.0583 3.34608 26.8976 3.44869L17.3254 9.56205C15.2724 10.8732 12.6838 10.9007 10.6051 9.63346L0.968928 3.75899C0.813244 3.66408 0.741784 3.46871 0.811945 3.29677C1.43547 1.76869 2.83729 0.677785 4.49637 0.528996L6.80349 0.32209Z" fill="white"/>
<path d="M0.804104 6.40447C0.565846 6.25922 0.261838 6.41552 0.234065 6.69959C-0.153555 10.6643 -0.0597405 14.6666 0.515509 18.6132C0.81877 20.6938 2.46468 22.2888 4.49637 22.471L6.80349 22.6779C11.5921 23.1074 16.4079 23.1074 21.1965 22.6779L23.5036 22.471C25.5353 22.2888 27.1812 20.6938 27.4845 18.6132C28.0765 14.5516 28.1586 10.431 27.7308 6.35308C27.7008 6.067 27.3916 5.91358 27.1545 6.06503L18.5315 11.5721C15.754 13.346 12.2517 13.3832 9.43936 11.6688L0.804104 6.40447Z" fill="white"/>
</svg>
