<svg width="29" height="28" viewBox="0 0 29 28" fill="none" xmlns="http://www.w3.org/2000/svg">
<path fill-rule="evenodd" clip-rule="evenodd" d="M26.0349 1.24168C26.2742 1.48098 26.4087 1.80554 26.4087 2.14396V8.65745C26.4087 9.36217 25.8374 9.93346 25.1327 9.93346C24.4279 9.93346 23.8567 9.36217 23.8567 8.65745V5.22453L18.4821 10.5991C17.9838 11.0974 17.1758 11.0974 16.6775 10.5991C16.1792 10.1008 16.1792 9.29287 16.6775 8.79455L22.0521 3.41997L18.6192 3.41997C17.9145 3.41997 17.3432 2.84868 17.3432 2.14396C17.3432 1.43924 17.9145 0.867948 18.6192 0.867948L25.1327 0.867948C25.4711 0.867948 25.7957 1.00238 26.0349 1.24168Z" fill="white"/>
<path d="M1.41731 11.1608C4.67778 18.2621 10.4794 23.908 17.6923 26.9687L18.8486 27.4839C21.4938 28.6625 24.6035 27.7671 26.2169 25.3622L27.7279 23.1101C28.2191 22.3779 28.0696 21.3917 27.3833 20.8381L22.2591 16.7041C21.5065 16.0969 20.3997 16.2384 19.8239 17.0153L18.2387 19.1544C14.1711 17.1479 10.8687 13.8455 8.86225 9.77787L11.0013 8.19269C11.7782 7.61691 11.9196 6.51016 11.3124 5.75751L7.17839 0.633145C6.62486 -0.0529776 5.63892 -0.20264 4.90672 0.288316L2.63909 1.80881C0.219189 3.4314 -0.671265 6.56673 0.534536 9.21905L1.41599 11.1579L1.41731 11.1608Z" fill="white"/>
</svg>
