<svg width="30" height="30" viewBox="0 0 30 30" fill="none" xmlns="http://www.w3.org/2000/svg">
<path fill-rule="evenodd" clip-rule="evenodd" d="M15 30.0004C23.2843 30.0004 30 23.2847 30 15.0004C30 6.71616 23.2843 0.000427246 15 0.000427246C6.71573 0.000427246 0 6.71616 0 15.0004C0 17.6907 0.708211 20.2155 1.94837 22.3986L0 30.0004L7.83735 28.1831C9.96576 29.342 12.406 30.0004 15 30.0004ZM15 27.6927C22.0098 27.6927 27.6923 22.0102 27.6923 15.0004C27.6923 7.99066 22.0098 2.30812 15 2.30812C7.99023 2.30812 2.30769 7.99066 2.30769 15.0004C2.30769 17.7069 3.15482 20.2156 4.5984 22.2757L3.46154 26.5389L7.79992 25.4543C9.84575 26.866 12.3263 27.6927 15 27.6927Z" fill="white"/>
<path d="M10.6192 8.43458C10.2654 7.71603 9.72271 7.77964 9.17443 7.77964C8.19455 7.77964 6.66667 8.96646 6.66667 11.1752C6.66667 12.9854 7.45553 14.967 10.1137 17.9312C12.6791 20.7919 16.0498 22.2718 18.8482 22.2214C21.6465 22.171 22.2222 19.7361 22.2222 18.9138C22.2222 18.5493 21.9985 18.3674 21.8445 18.318C20.8909 17.8553 19.1321 16.993 18.7319 16.831C18.3317 16.669 18.1228 16.8881 17.9929 17.0073C17.63 17.357 16.9106 18.3876 16.6643 18.6194C16.418 18.8512 16.0508 18.7339 15.898 18.6463C15.3356 18.4181 13.8109 17.7324 12.5956 16.5411C11.0925 15.0678 11.0043 14.5609 10.7211 14.1097C10.4946 13.7487 10.6608 13.5272 10.7438 13.4304C11.0676 13.0526 11.5148 12.4693 11.7153 12.1794C11.9158 11.8895 11.7567 11.4494 11.6611 11.1752C11.2503 9.99631 10.9023 9.00941 10.6192 8.43458Z" fill="white"/>
</svg>
